<svg width="549" height="47" viewBox="0 0 549 47" fill="none" xmlns="http://www.w3.org/2000/svg">
<g filter="url(#filter0_d)">
<path d="M31.2897 16.76C31.2897 6.04 23.1297 2.68 15.0897 2.68H4.84969V31H15.4097C23.2097 31 31.2897 26.72 31.2897 16.76ZM24.1697 16.76C24.1697 23.08 19.6497 25.08 14.7697 25.08H11.5297V8.52H14.9297C19.6497 8.52 24.1697 10.4 24.1697 16.76ZM40.7463 18.76C40.9063 16.72 42.7463 14.96 45.2663 14.96C47.8663 14.96 49.1863 16.68 49.1863 18.76H40.7463ZM55.2263 21.28C55.2263 14.48 51.1063 10.44 45.2263 10.44C39.1863 10.44 34.4663 14.6 34.4663 21.12C34.4663 27.84 39.4263 31.64 45.4263 31.64C49.4663 31.64 52.5863 30.12 54.4663 27.4L49.9063 24.52C49.0263 25.72 47.5863 26.6 45.5063 26.6C43.1463 26.6 40.9463 25.04 40.7463 22.84H55.1863C55.2263 22.36 55.2263 21.8 55.2263 21.28ZM51.9863 2.36H45.3463L41.1863 8.12H46.1463L51.9863 2.36ZM76.8144 13.12C75.2544 11.52 72.2544 10.44 69.4144 10.44C63.2144 10.44 58.2944 14.56 58.2944 21.04C58.2944 27.64 63.1744 31.64 69.4544 31.64C72.3744 31.64 75.1744 30.68 76.8144 29.08L73.1744 24.64C72.3744 25.6 70.9344 26.12 69.6144 26.12C66.7344 26.12 64.9344 23.8 64.9344 21.04C64.9344 18.28 66.7744 15.92 69.5344 15.92C70.8544 15.92 72.2944 16.56 73.0144 17.52L76.8144 13.12ZM100.532 20.96C100.532 14.44 95.4916 10.44 89.4516 10.44C83.4516 10.44 78.4116 14.44 78.4116 20.96C78.4116 27.48 83.4516 31.64 89.4516 31.64C95.4916 31.64 100.532 27.48 100.532 20.96ZM94.2116 20.96C94.2116 23.52 92.5716 26.12 89.4916 26.12C86.4116 26.12 84.7716 23.52 84.7716 20.96C84.7716 18.4 86.3716 15.88 89.4516 15.88C92.5316 15.88 94.2116 18.4 94.2116 20.96ZM124.125 31V11.08H117.565V21.84C117.565 24.12 116.325 26.12 114.045 26.12C111.645 26.12 111.085 24.12 111.085 21.88V11.08H104.485V23.4C104.485 27.4 106.365 31.56 111.725 31.56C114.525 31.56 116.805 30 117.725 28.24H117.805V31H124.125ZM149.415 11.08H142.415L138.215 24H138.095L133.895 11.08H126.655L134.495 31H141.575L149.415 11.08ZM165.151 10.68C164.831 10.56 164.271 10.52 163.751 10.52C161.311 10.52 159.351 11.96 158.351 13.96H158.271V11.08H151.951V31H158.511V20.76C158.511 19.12 159.671 16.24 163.191 16.24C163.711 16.24 164.271 16.28 164.871 16.44L165.151 10.68ZM172.387 18.76C172.547 16.72 174.387 14.96 176.907 14.96C179.507 14.96 180.827 16.68 180.827 18.76H172.387ZM186.867 21.28C186.867 14.48 182.747 10.44 176.867 10.44C170.827 10.44 166.107 14.6 166.107 21.12C166.107 27.84 171.067 31.64 177.067 31.64C181.107 31.64 184.227 30.12 186.107 27.4L181.547 24.52C180.667 25.72 179.227 26.6 177.147 26.6C174.787 26.6 172.587 25.04 172.387 22.84H186.827C186.867 22.36 186.867 21.8 186.867 21.28ZM207.495 31V25.92H197.455L207.095 16V11.08H190.095V16.12H199.095L189.735 25.88V31H207.495ZM241.084 31V18.68C241.084 14.68 239.164 10.52 233.804 10.52C231.044 10.52 228.764 12.08 227.844 13.84H227.764V11.08H221.404V31H228.004V20.2C228.004 17.92 229.204 15.92 231.524 15.92C233.884 15.92 234.484 17.92 234.484 20.12V31H241.084ZM267.172 20.96C267.172 14.44 262.132 10.44 256.092 10.44C250.092 10.44 245.052 14.44 245.052 20.96C245.052 27.48 250.092 31.64 256.092 31.64C262.132 31.64 267.172 27.48 267.172 20.96ZM260.852 20.96C260.852 23.52 259.212 26.12 256.132 26.12C253.052 26.12 251.412 23.52 251.412 20.96C251.412 18.4 253.012 15.88 256.092 15.88C259.172 15.88 260.852 18.4 260.852 20.96ZM283.126 16V11.08H278.446V5.84H272.006V11.08H268.846V16H272.046V24.4C272.046 28.64 273.806 31.48 279.126 31.48C280.526 31.48 282.046 31.2 282.926 30.88L282.846 26.08C282.366 26.28 281.566 26.4 280.926 26.4C279.046 26.4 278.446 25.44 278.446 23.6V16H283.126ZM299.408 10.68C299.088 10.56 298.528 10.52 298.008 10.52C295.568 10.52 293.608 11.96 292.608 13.96H292.528V11.08H286.208V31H292.768V20.76C292.768 19.12 293.928 16.24 297.448 16.24C297.968 16.24 298.528 16.28 299.128 16.44L299.408 10.68ZM306.645 18.76C306.805 16.72 308.645 14.96 311.165 14.96C313.765 14.96 315.085 16.68 315.085 18.76H306.645ZM321.125 21.28C321.125 14.48 317.005 10.44 311.125 10.44C305.085 10.44 300.365 14.6 300.365 21.12C300.365 27.84 305.325 31.64 311.325 31.64C315.365 31.64 318.485 30.12 320.365 27.4L315.805 24.52C314.925 25.72 313.485 26.6 311.405 26.6C309.045 26.6 306.845 25.04 306.645 22.84H321.085C321.125 22.36 321.125 21.8 321.125 21.28ZM357.353 20.96C357.353 15.4 353.713 10.52 347.913 10.52C344.993 10.52 342.753 11.92 341.553 13.52H341.433V11.08H335.193V40.6H341.753V28.8H341.833C343.073 30.52 345.433 31.56 347.873 31.56C353.873 31.56 357.353 26.52 357.353 20.96ZM350.993 20.96C350.993 23.56 349.433 26.12 346.313 26.12C343.353 26.12 341.513 23.6 341.513 21C341.513 18.48 343.353 15.88 346.313 15.88C349.433 15.88 350.993 18.4 350.993 20.96ZM374.682 10.68C374.362 10.56 373.802 10.52 373.282 10.52C370.842 10.52 368.882 11.96 367.882 13.96H367.802V11.08H361.482V31H368.042V20.76C368.042 19.12 369.202 16.24 372.722 16.24C373.242 16.24 373.802 16.28 374.402 16.44L374.682 10.68ZM397.758 20.96C397.758 14.44 392.718 10.44 386.678 10.44C380.678 10.44 375.638 14.44 375.638 20.96C375.638 27.48 380.678 31.64 386.678 31.64C392.718 31.64 397.758 27.48 397.758 20.96ZM391.438 20.96C391.438 23.52 389.798 26.12 386.718 26.12C383.638 26.12 381.998 23.52 381.998 20.96C381.998 18.4 383.598 15.88 386.678 15.88C389.758 15.88 391.438 18.4 391.438 20.96ZM423.032 29.12V11.08H416.832V13.64H416.752C415.352 11.52 412.872 10.52 410.392 10.52C404.392 10.52 400.912 15.44 400.912 20.96C400.912 26.48 404.392 31.2 410.432 31.2C413.072 31.2 415.232 30.16 416.472 28.56H416.592V29.76C416.592 33.08 414.792 35.32 410.952 35.32C408.712 35.32 406.272 34.48 404.352 32.8L401.072 37.48C403.752 39.48 407.832 40.6 411.312 40.6C418.392 40.6 423.032 36.92 423.032 29.12ZM416.792 20.92C416.792 23.64 414.952 26 411.952 26C408.992 26 407.272 23.56 407.272 20.92C407.272 18.16 408.992 15.88 411.952 15.88C414.912 15.88 416.792 18.2 416.792 20.92ZM440 23C440 25.48 438.52 27.08 435.88 27.08C434.56 27.08 433.04 26.56 433.04 25.04C433.04 22.68 436.28 22.32 439.16 22.32H440V23ZM431.28 17.36C432.48 16.24 434.32 15.32 436.2 15.32C438.24 15.32 439.8 16.24 439.8 18.2V18.52C434 18.52 427 19.48 427 25.24C427 29.92 431.08 31.48 434.24 31.48C436.6 31.48 438.88 30.52 439.88 28.88H440V31H446V20.96C446 13.72 443.52 10.44 436.84 10.44C433.6 10.44 430.28 11.6 427.96 13.8L431.28 17.36ZM482.896 31V18.68C482.896 14.92 481.056 10.52 475.656 10.52C472.696 10.52 470.616 11.84 469.296 13.92C468.176 11.76 466.176 10.52 463.296 10.52C460.296 10.52 458.256 12.16 457.336 13.84H457.256V11.08H450.896V31H457.496V20.2C457.496 17.8 458.696 15.92 460.776 15.92C462.736 15.92 463.616 17.36 463.616 19.64V31H470.176V20.24C470.176 18 471.256 15.92 473.496 15.92C475.816 15.92 476.336 17.84 476.336 20.12V31H482.896ZM519.849 31V18.68C519.849 14.92 518.009 10.52 512.609 10.52C509.649 10.52 507.569 11.84 506.249 13.92C505.129 11.76 503.129 10.52 500.249 10.52C497.249 10.52 495.209 12.16 494.289 13.84H494.209V11.08H487.849V31H494.449V20.2C494.449 17.8 495.649 15.92 497.729 15.92C499.689 15.92 500.569 17.36 500.569 19.64V31H507.129V20.24C507.129 18 508.209 15.92 510.449 15.92C512.769 15.92 513.289 17.84 513.289 20.12V31H519.849ZM530.082 18.76C530.242 16.72 532.082 14.96 534.602 14.96C537.202 14.96 538.522 16.68 538.522 18.76H530.082ZM544.562 21.28C544.562 14.48 540.442 10.44 534.562 10.44C528.522 10.44 523.802 14.6 523.802 21.12C523.802 27.84 528.762 31.64 534.762 31.64C538.802 31.64 541.922 30.12 543.802 27.4L539.242 24.52C538.362 25.72 536.922 26.6 534.842 26.6C532.482 26.6 530.282 25.04 530.082 22.84H544.522C544.562 22.36 544.562 21.8 544.562 21.28Z" fill="#5C5B5B"/>
</g>
<defs>
<filter id="filter0_d" x="0.849701" y="0.359985" width="547.713" height="46.24" filterUnits="userSpaceOnUse" color-interpolation-filters="sRGB">
<feFlood flood-opacity="0" result="BackgroundImageFix"/>
<feColorMatrix in="SourceAlpha" type="matrix" values="0 0 0 0 0 0 0 0 0 0 0 0 0 0 0 0 0 0 127 0" result="hardAlpha"/>
<feOffset dy="2"/>
<feGaussianBlur stdDeviation="2"/>
<feColorMatrix type="matrix" values="0 0 0 0 0.973534 0 0 0 0 0.973534 0 0 0 0 0.973534 0 0 0 0.5 0"/>
<feBlend mode="normal" in2="BackgroundImageFix" result="effect1_dropShadow"/>
<feBlend mode="normal" in="SourceGraphic" in2="effect1_dropShadow" result="shape"/>
</filter>
</defs>
</svg>
